<?xml version="1.0" standalone="no"?>
<!DOCTYPE svg PUBLIC "-//W3C//DTD SVG 20010904//EN"
 "http://www.w3.org/TR/2001/REC-SVG-20010904/DTD/svg10.dtd">
<svg version="1.0" xmlns="http://www.w3.org/2000/svg"
 width="260.000000pt" height="260.000000pt" viewBox="0 0 260.000000 260.000000"
 preserveAspectRatio="xMidYMid meet">
<metadata>
Created by potrace 1.11, written by Peter Selinger 2001-2013
</metadata>
<g transform="translate(0.000000,260.000000) scale(0.100000,-0.100000)"
fill="#000000" stroke="none">
<path d="M1045 2591 c-33 -9 -107 -48 -116 -62 -3 -5 -14 -11 -25 -13 -10 -2
-37 -8 -59 -14 -22 -6 -62 -13 -88 -17 -76 -10 -137 -40 -139 -67 -2 -42 -3
-47 -10 -53 -4 -4 -4 -14 -1 -22 4 -9 -5 -24 -21 -38 -15 -13 -26 -29 -25 -37
4 -23 -13 -98 -22 -98 -5 0 -9 -24 -9 -54 0 -44 4 -56 22 -68 18 -12 20 -18
11 -30 -13 -15 -7 -54 10 -76 5 -7 11 -27 13 -45 2 -17 6 -43 9 -57 3 -14 8
-65 11 -115 3 -49 7 -103 9 -118 3 -22 -2 -30 -19 -37 -59 -22 -73 -101 -37
-210 31 -95 49 -138 72 -172 11 -14 19 -34 19 -45 1 -28 23 -58 45 -61 27 -5
34 -13 39 -47 8 -64 71 -189 137 -270 27 -33 49 -65 49 -72 0 -6 -17 -32 -37
-56 -21 -24 -47 -55 -58 -68 -11 -13 -25 -33 -30 -44 -9 -16 -135 -90 -135
-79 0 2 -22 -8 -49 -21 -26 -14 -70 -27 -97 -30 -27 -4 -65 -14 -84 -22 -37
-18 -121 -72 -131 -86 -3 -5 -43 -23 -89 -41 -46 -19 -99 -46 -119 -62 -20
-16 -38 -30 -41 -30 -47 -13 -48 -14 -49 -85 l-1 -69 1300 0 1300 0 0 152 c0
141 -2 154 -25 202 -17 35 -38 59 -69 79 -23 15 -46 27 -51 27 -15 0 -155 73
-155 82 0 4 -9 8 -20 8 -17 0 -36 6 -95 31 -11 5 -40 11 -65 14 -24 4 -52 11
-61 15 -9 5 -47 11 -84 14 -37 3 -73 10 -79 14 -6 5 -30 14 -53 20 -22 7 -56
26 -73 42 -18 17 -35 30 -39 30 -8 0 -6 128 2 170 3 14 12 61 21 105 9 44 18
94 21 110 4 17 8 37 10 45 2 8 4 17 4 20 1 2 6 -1 13 -8 16 -16 59 -15 81 2
10 8 41 60 69 117 44 90 51 112 51 164 1 149 -31 215 -102 215 -11 0 -42 169
-46 254 -2 35 -8 72 -13 82 -5 11 -10 32 -10 49 0 16 -5 31 -11 33 -11 4 -28
36 -36 72 -11 43 -34 95 -47 104 -8 6 -22 23 -32 38 -10 16 -29 28 -44 30 -19
2 -27 9 -28 23 -1 11 -2 25 -3 32 -1 7 -8 10 -16 7 -9 -4 -15 0 -15 8 0 24
-40 59 -60 53 -12 -4 -23 1 -33 15 -8 11 -24 22 -36 25 -11 2 -33 11 -48 19
-41 22 -92 36 -128 36 -18 0 -51 7 -74 15 -22 8 -41 12 -41 10 0 -2 -24 3 -52
11 -29 7 -53 13 -53 13 0 -1 -13 -4 -30 -8z"/>
</g>
</svg>
